<svg width="145" height="33" viewBox="0 0 145 33" fill="none" xmlns="http://www.w3.org/2000/svg">
<path d="M24.3064 32.8582L14.8888 32.684C11.8396 32.6235 8.78278 32.7446 5.79342 32.1161C1.24571 31.1772 0.923548 26.5733 0.586403 22.7116C0.121892 17.2824 0.301702 11.7547 1.17828 6.37094C1.67276 3.34967 3.62071 1.5475 6.63254 1.35063C16.7993 0.638848 27.0336 0.722142 37.1779 1.05531C38.2493 1.0856 39.3281 1.25219 40.3845 1.44149C45.599 2.36529 45.7264 7.58248 46.0635 11.9743C46.4007 16.4116 46.2583 20.8715 45.614 25.2785C45.0971 28.9283 44.1081 31.9874 39.935 32.2827C34.7055 32.6689 29.5959 32.9794 24.3514 32.8809C24.3514 32.8582 24.3214 32.8582 24.3064 32.8582V32.8582ZM18.7698 23.6202C22.7106 21.3334 26.5765 19.0845 30.4949 16.8129C26.5466 14.5261 22.6881 12.2772 18.7698 10.0056V23.6202Z" fill="#FF0000"/>
<path d="M121.602 28.7088C121.422 29.4509 121.265 30.0339 121.108 30.6549H117.421V1.9184H121.722V12.5195C121.947 12.2317 122.059 12.1106 122.156 11.9818C122.891 10.9596 123.842 10.2932 125.071 10.0358C127.026 9.6496 128.697 10.5204 129.289 12.421C129.671 13.6023 129.918 14.8668 129.948 16.1011C130.008 19.2739 129.963 22.439 129.851 25.6118C129.806 26.581 129.514 27.573 129.147 28.4816C127.94 31.4802 124 31.9346 122.044 29.3373C121.924 29.1783 121.812 29.0041 121.602 28.7088V28.7088ZM121.812 20.8034V26.0585C121.812 26.9142 122.261 27.4367 123.108 27.6336C123.94 27.8304 124.614 27.5048 124.951 26.7249C125.093 26.3993 125.236 26.0585 125.243 25.7178C125.326 22.5072 125.401 19.2966 125.423 16.0784C125.423 15.4802 125.281 14.8593 125.101 14.2762C124.764 13.2237 123.835 12.9132 122.921 13.5266C122.231 13.996 121.812 14.6624 121.812 15.5483V20.8034ZM110.124 10.4447H114.627V30.67H111.113C110.986 29.9052 110.858 29.1177 110.709 28.1939C110.469 28.5498 110.326 28.777 110.177 29.0041C109.008 30.7079 107.352 31.2909 105.397 30.9805C103.726 30.7079 102.722 29.4054 102.497 27.2701C102.43 26.634 102.4 25.9904 102.4 25.3543C102.385 20.6217 102.4 15.8739 102.4 11.1413V10.4295H106.955V11.2549C106.955 15.8285 106.94 20.3945 106.97 24.9681C106.97 25.6194 107.037 26.2933 107.15 26.9445C107.277 27.6108 107.757 27.8532 108.401 27.8077C109.442 27.7244 110.162 26.9445 110.162 25.8995V11.3382C110.124 11.0429 110.124 10.7703 110.124 10.4447V10.4447ZM79.1218 10.4295H83.647V11.2852C83.647 15.8361 83.6321 20.3794 83.662 24.9151C83.662 25.5663 83.722 26.2403 83.8568 26.8763C84.0291 27.626 84.4637 27.8683 85.2054 27.7699C86.2318 27.626 86.8537 26.9066 86.8612 25.8541V11.3685V10.4598H91.3639V30.67H87.8651C87.7377 29.9204 87.6104 29.148 87.4455 28.1712C87.2208 28.5119 87.0934 28.7088 86.966 28.9133C85.7973 30.6473 84.1565 31.2834 82.1561 30.9729C80.5528 30.7306 79.5713 29.5342 79.2717 27.573C79.1892 26.9596 79.1293 26.3539 79.1293 25.7405C79.1143 20.8262 79.1143 15.8891 79.1143 10.9747L79.1218 10.4295ZM76.7993 21.2275C76.7843 21.909 76.7393 22.5905 76.7019 23.272C76.5295 25.3165 76.4471 28.2166 74.8138 29.7083C73.7724 30.6473 72.4538 30.988 71.0903 31.0335C70.4834 31.0486 69.8691 31.0486 69.2622 30.9653C66.3927 30.5261 65.0591 29.2464 64.5796 26.0585C64.0327 22.3785 63.9878 18.6378 64.6396 14.9577C65.3139 11.1489 67.6364 9.80105 71.2476 10.0509C74.6191 10.2932 76.125 12.527 76.522 15.7074C76.7393 17.5323 76.8442 19.3799 76.7993 21.2275V21.2275ZM72.2141 20.5308C72.2141 19.236 72.2441 17.9336 72.1991 16.6387C72.1691 15.8891 72.0717 15.1319 71.9144 14.3898C71.7346 13.5341 71.1952 13.1252 70.5209 13.1404C69.8616 13.1555 69.3971 13.5644 69.1573 14.3595C69.0749 14.6548 68.985 14.9577 68.985 15.253C68.985 17.2824 68.97 19.3193 68.955 21.3486C68.94 23.2417 68.7003 25.2256 69.2922 27.0354C69.472 27.5881 69.9365 27.891 70.5433 27.891C71.1352 27.891 71.5248 27.5957 71.7421 27.0656C71.9144 26.6567 72.0642 26.21 72.0642 25.7708C72.1167 24.0292 72.2141 22.28 72.2141 20.5308ZM57.9716 16.722C58.3687 14.7608 58.7433 12.8451 59.1553 10.9217C59.6723 8.47591 60.2492 6.0301 60.7587 3.57671C60.886 2.9785 61.1258 2.83463 61.6877 2.84978C62.8939 2.89521 64.1226 2.86492 65.4113 2.86492C64.9917 4.42479 64.5796 5.90894 64.1751 7.37037C62.8939 11.9591 61.6128 16.563 60.3466 21.1669C60.2492 21.5228 60.2042 21.909 60.2042 22.2876C60.1893 24.8016 60.2042 27.308 60.2042 29.8219V30.6397H55.8064C55.7914 30.4126 55.7614 30.1854 55.7614 29.9582C55.7614 28.5346 55.649 27.1035 55.7764 25.6951C56.0986 22.3103 55.0347 19.1981 54.1731 16.0481C53.0343 11.8834 51.8805 7.70355 50.7417 3.53884C50.6818 3.34197 50.6593 3.12995 50.5994 2.88764H55.0871C56.0311 7.48396 56.9826 12.0803 57.9716 16.722ZM144.018 21.9998H136.436C136.519 23.537 136.549 24.9984 136.706 26.4447C136.819 27.4518 137.365 27.8834 138.227 27.891C139.126 27.9062 139.651 27.4518 139.86 26.4523C139.928 26.1267 139.973 25.8011 140.003 25.4679C140.033 25.1726 140.048 24.8546 140.07 24.4305C141.351 24.4987 142.602 24.5744 143.839 24.6274C144.558 26.7855 143.262 29.5569 141.082 30.4126C139.366 31.094 137.605 31.094 135.852 30.5716C134.556 30.1854 133.589 29.3524 133.155 28.0727C132.75 26.8763 132.368 25.6269 132.286 24.3775C132.061 21.2956 131.979 18.1835 132.443 15.094C132.526 14.5791 132.668 14.0869 132.825 13.5871C133.455 11.5275 134.826 10.263 136.946 10.0509C138.1 9.93735 139.291 9.98278 140.43 10.1797C142.273 10.5053 143.254 11.8455 143.681 13.6023C143.876 14.4277 144.018 15.2757 144.048 16.1163C144.056 18.0472 144.018 19.9629 144.018 21.9998ZM139.71 19.342C139.71 17.82 139.725 16.3889 139.695 14.9501C139.695 14.6094 139.568 14.2535 139.441 13.9279C139.186 13.2918 138.654 13.1177 138.017 13.1177C137.38 13.1177 136.976 13.4433 136.819 14.0263C136.339 15.7755 136.496 17.5625 136.511 19.3572C137.658 19.342 138.699 19.342 139.71 19.342V19.342Z" fill="#14192B"/>
<path d="M94.8401 6.57564H90.3823V2.92584H103.688V6.55293H99.2604V30.6401H94.8476L94.8401 6.57564Z" fill="#14192B"/>
</svg>
