<svg width="159" height="40" viewBox="0 0 159 40" fill="none" xmlns="http://www.w3.org/2000/svg">
<path d="M17.081 0.957877C15.0295 1.19024 11.9522 2.15545 10.2013 3.12067C5.49703 5.67669 2.31366 9.66266 0.72197 14.9713C0.403633 16.008 0.0322392 18.8322 0.0499246 20.1549C0.0499246 21.3167 0.403633 24.1587 0.615857 24.8379C0.72197 25.1597 0.95188 25.9283 1.14642 26.5181C1.46476 27.5191 3.00339 30.665 3.26867 30.8795C3.32172 30.9331 3.60469 31.2906 3.86997 31.7017C4.52433 32.6848 6.23981 34.4364 7.53085 35.4374C8.52123 36.206 11.3155 37.8326 11.6692 37.8504C11.7577 37.8504 11.7753 37.1712 11.7223 36.2775C11.5985 34.2934 11.9699 31.5944 12.7657 28.8418C12.9072 28.3771 13.0133 27.7693 13.0133 27.5012C13.0133 27.2331 13.0841 26.9471 13.1725 26.8577C13.2609 26.7505 13.4201 26.2321 13.5085 25.6959C13.6146 25.1597 13.7915 24.3375 13.9153 23.8727C14.0921 23.1756 14.0744 22.9075 13.8268 22.1568C13.4731 21.0128 13.4555 19.1539 13.8092 18.2602C14.6404 16.1332 15.56 15.3288 17.1163 15.3288C18.991 15.3288 19.8929 16.7588 19.5392 19.1539C19.3801 20.2442 18.9379 21.9602 18.655 22.4964C18.5842 22.6573 18.4604 23.1041 18.4074 23.4795C18.3366 23.8727 18.1951 24.4268 18.1067 24.7307C17.8591 25.4278 18.3366 26.7862 18.9733 27.3046C19.5746 27.7872 20.8303 27.9302 21.9798 27.6621C22.7933 27.4833 23.1294 27.2688 23.9783 26.4466C24.9863 25.4457 25.7468 24.2838 25.7468 23.7297C25.7468 23.5689 25.8352 23.3544 25.9413 23.2471C26.4365 22.7466 26.7018 18.85 26.3304 17.2056C25.9237 15.4003 24.668 13.6308 23.0409 12.594C21.4139 11.5395 18.0537 11.2356 15.9845 11.9506C14.5343 12.4511 13.2432 13.2911 12.412 14.2742C11.6692 15.1501 10.8911 16.58 10.8911 17.0805C10.8911 17.2592 10.8026 17.4916 10.6965 17.5988C10.5904 17.7061 10.4666 18.3853 10.4136 19.1182C10.3251 20.2085 10.3959 20.709 10.7142 21.7814C10.9264 22.5143 11.3155 23.3722 11.5454 23.694C12.0229 24.3375 12.0229 24.5877 11.5808 26.3036C11.457 26.7684 11.2448 27.1973 11.121 27.251C10.0068 27.68 7.74307 24.9809 6.9826 22.2998C6.69963 21.281 6.68195 17.6525 6.96492 16.58C7.08871 16.1332 7.30094 15.5254 7.44242 15.2037C7.5839 14.8998 7.7077 14.596 7.7077 14.5245C7.7077 14.453 8.06141 13.8452 8.50355 13.1839C10.8026 9.68053 14.5343 7.82161 19.2563 7.82161C20.3351 7.82161 21.4493 7.89311 21.7499 7.98248C24.1905 8.75107 24.8449 9.00131 25.7999 9.57329C27.6568 10.6994 29.0009 12.2366 30.345 14.8105C30.4334 14.9713 30.5572 15.4003 30.6103 15.7578C30.681 16.1153 30.8048 16.4549 30.8933 16.5085C30.9817 16.5621 31.0524 17.724 31.0524 19.1003C31.0524 21.5848 30.8756 22.5858 30.1328 24.6234C29.3016 26.8577 27.1616 29.3244 25.2162 30.2896C24.1021 30.8258 22.0152 31.4157 21.184 31.4157C20.0698 31.4157 17.8768 30.4862 17.2755 29.7355C16.9925 29.3959 16.7273 29.521 16.7273 30.0036C16.7273 30.1824 16.6565 30.4862 16.5504 30.665C16.462 30.8258 16.3028 31.3263 16.2144 31.7732C15.7015 34.1326 14.9764 36.0451 13.8622 37.8326C13.5262 38.3867 13.8092 38.7084 14.7288 38.8335C15.1886 38.905 15.8076 39.0301 16.0906 39.1195C16.798 39.3519 20.6357 39.3161 21.9268 39.0838C23.094 38.8693 24.9863 38.333 25.8352 37.9756C31.1762 35.7591 35.2262 31.2548 36.977 25.5172C37.9144 22.4607 37.9674 18.9037 37.1185 15.3288C36.8356 14.167 36.7471 13.8989 35.9867 12.1114C34.8902 9.50179 32.4142 6.44529 29.9029 4.56848C27.7453 2.9598 25.623 2.03033 22.3158 1.22599C21.3962 1.0115 18.1244 0.832756 17.081 0.957877V0.957877ZM64.2479 7.4105C63.5582 7.51774 62.4617 8.6617 62.1787 9.55541C61.8781 10.5385 62.1787 11.5931 63.0276 12.4153C64.9023 14.2564 68.1564 12.5225 67.7496 9.87715C67.502 8.19697 65.9811 7.12451 64.2479 7.4105ZM44.9708 8.46508C44.8117 8.64383 44.8117 30.2002 44.9885 30.4505C45.0769 30.5935 45.8374 30.6471 47.323 30.6292L49.5337 30.6113L49.6221 26.9829C49.6928 24.0336 49.7636 23.3186 49.9758 23.1935C50.1173 23.1041 51.3199 23.0148 52.6463 23.0148C55.5467 23.0148 56.767 22.8003 58.0934 22.0853C59.8266 21.138 60.8346 19.7795 61.3829 17.6167C61.7189 16.2583 61.7189 15.2752 61.3652 13.881C61.0469 12.6298 60.9054 12.3259 60.1449 11.3071C59.2076 10.038 58.2526 9.34092 56.6963 8.78682C55.8297 8.50083 55.1046 8.44721 50.4179 8.39359C47.4998 8.35784 45.0416 8.39358 44.9708 8.46508V8.46508ZM54.6801 12.9158C55.865 13.2911 56.4487 13.8274 56.7139 14.7926C57.05 16.0617 56.8024 17.2414 56.0596 17.9563C55.2461 18.7249 54.5209 18.9037 52.1511 18.9037C50.5948 18.9037 50.1173 18.85 49.9051 18.6177C49.6752 18.4032 49.6221 17.8848 49.6221 15.8472C49.6221 12.6298 49.6044 12.6477 52.0627 12.6477C53.1238 12.6477 54.1496 12.7549 54.6801 12.9158ZM85.7003 11.8612C85.7003 13.0945 85.6119 14.2564 85.5235 14.453C85.3997 14.6853 85.1521 14.7926 84.7276 14.7926C84.4093 14.7926 84.1086 14.8641 84.0733 14.9713C84.0556 15.0607 84.0556 15.6863 84.1086 16.3476C84.197 17.5274 84.2147 17.5452 84.7453 17.6703C85.046 17.724 85.382 17.8312 85.4881 17.9027C85.6473 17.9921 85.7003 19.4042 85.7003 22.979C85.7003 27.7872 85.718 27.9659 86.1071 28.6809C86.9206 30.2002 88.194 30.7365 90.776 30.665L92.5092 30.6113L92.5622 28.8775L92.6153 27.1259H92.1732C91.5011 27.1259 90.5107 26.5896 90.4046 26.1606C90.3516 25.9461 90.2985 24.0515 90.2985 21.9244C90.2985 18.993 90.3516 18.01 90.5284 17.867C90.6522 17.7597 91.1474 17.6525 91.6249 17.6167L92.5092 17.5631V14.882L91.5365 14.8283C91.0059 14.7926 90.5107 14.6675 90.44 14.5602C90.3693 14.4351 90.2985 13.2733 90.2985 11.9684V9.60904H85.7003V11.8612ZM151.437 9.71628C151.366 9.78778 151.313 10.9139 151.313 12.2187C151.313 14.7568 151.295 14.7926 150.323 14.7926C149.881 14.7926 149.881 14.8105 149.934 16.1689C149.987 17.5274 150.004 17.5631 150.464 17.6167C150.712 17.6525 151.012 17.7776 151.101 17.8848C151.207 18.01 151.313 20.1727 151.366 22.9254C151.419 25.5708 151.508 27.9838 151.578 28.2698C151.791 29.0563 152.887 30.0572 153.931 30.3968C155.098 30.7901 158.069 30.8258 158.37 30.4505C158.511 30.2896 158.564 29.6461 158.529 28.7167L158.476 27.2152L157.857 27.108C157.185 27.0007 156.424 26.6432 156.23 26.3394C156.159 26.2321 156.088 24.2838 156.088 22.0138C156.088 17.3486 155.982 17.6525 157.521 17.6525C158.529 17.6525 158.617 17.4737 158.529 15.8472L158.476 14.882L157.326 14.7926L156.177 14.7032L156.088 12.2008L156 9.69841L153.771 9.64479C152.551 9.62691 151.508 9.66266 151.437 9.71628V9.71628ZM76.946 14.3636C76.0795 14.596 75.0714 15.1858 74.3993 15.8829C73.5858 16.7409 73.3736 16.6873 73.2852 15.5969L73.2321 14.882H68.8108V30.6113L71.0391 30.6471C73.2321 30.7007 73.2852 30.6828 73.3913 30.2896C73.4443 30.0751 73.4974 27.8051 73.4974 25.2312C73.4974 20.137 73.5151 19.994 74.5585 18.993C75.0183 18.5462 75.2659 18.4568 76.2563 18.4032L77.4059 18.3317L78.0956 19.0645C78.9091 19.9225 78.8207 19.1003 78.8914 26.5003C78.9091 28.4664 78.9268 30.2002 78.9445 30.379C78.9799 30.6292 79.2628 30.665 81.2436 30.6292L83.4896 30.6113V18.0636L82.9768 17.0447C82.0925 15.2752 80.7307 14.4351 78.6438 14.3279C77.901 14.31 77.1406 14.31 76.946 14.3636V14.3636ZM99.0528 14.3636C97.1428 14.882 96.2231 15.4003 95.0382 16.58C93.4465 18.2066 92.7214 20.1013 92.7214 22.6573C92.7391 27.1437 95.5157 30.4683 99.6187 30.8616C103.12 31.2012 105.826 30.1645 107.559 27.8229C107.807 27.4833 108.338 26.393 108.338 26.1964C108.338 26.1249 107.312 26.0534 106.074 26.0534H103.81L103.28 26.6075C102.661 27.251 101.794 27.6621 100.998 27.6621C100.202 27.6621 98.9821 27.0901 98.4161 26.4824C97.9917 25.9998 97.3727 24.6056 97.3727 24.123C97.3727 23.9621 98.6637 23.9085 102.82 23.9085C105.809 23.9085 108.338 23.837 108.461 23.7655C108.727 23.5867 108.479 20.7447 108.09 19.708C107.294 17.5452 105.791 15.722 104.27 15.0786C103.828 14.8998 103.315 14.6675 103.138 14.5781C102.767 14.3815 99.6187 14.2206 99.0528 14.3636V14.3636ZM102.501 18.2781C103.191 18.7607 103.792 19.9046 103.704 20.5481C103.651 20.9592 103.616 20.9592 100.627 21.0128C97.1781 21.0665 97.1605 21.0486 97.7087 19.7616C98.0978 18.8679 98.8759 18.0636 99.601 17.8312C100.432 17.5631 101.776 17.7776 102.501 18.2781ZM125.227 14.3636C123.176 14.9177 121.743 15.8293 120.629 17.2414C120.187 17.8133 119.833 18.3496 119.833 18.4568C119.833 18.5462 119.709 18.8679 119.55 19.1718C119.391 19.4578 119.161 20.3515 119.037 21.1558C118.418 24.9809 120.116 28.5558 123.299 30.1645L124.52 30.7901H127.084C129.737 30.7901 129.967 30.7365 131.594 29.8606C132.779 29.2171 134.724 26.7147 134.424 26.2143C134.353 26.1249 133.345 26.0534 132.16 26.0534H129.985L129.542 26.5717C127.774 28.5915 124.467 27.5548 123.759 24.7486C123.653 24.3732 123.653 24.0515 123.742 23.98C123.83 23.9264 126.359 23.8906 129.383 23.9085C133.698 23.9085 134.866 23.8727 134.883 23.694C135.043 21.4597 133.981 18.153 132.655 16.723C131.912 15.9187 130.621 15.0249 129.985 14.8641C129.702 14.7926 129.383 14.6675 129.259 14.5781C129.012 14.3815 125.775 14.2206 125.227 14.3636V14.3636ZM127.986 17.8491C128.782 18.1351 129.702 19.136 129.843 19.9046C130.055 21.0665 130.073 21.0665 126.783 21.0128C123.83 20.9592 123.812 20.9592 123.759 20.5481C123.689 20.0476 124.308 18.8143 124.838 18.3496C125.599 17.7061 126.925 17.4916 127.986 17.8491V17.8491ZM140.613 14.3636C136.988 15.2394 135.679 16.5443 135.662 19.2612C135.662 22.1925 137.112 23.4259 141.409 24.1945C144.363 24.7128 145.212 25.1776 145.176 26.3036C145.159 27.108 144.61 27.6263 143.514 27.8587C142.134 28.1626 141.056 27.8229 140.189 26.8399L139.499 26.0534H137.359C135.626 26.0534 135.219 26.107 135.219 26.3036C135.219 26.822 135.927 28.1804 136.51 28.8597C137.059 29.4495 137.483 29.7355 139.146 30.5398C139.305 30.6292 140.171 30.7722 141.038 30.8795C142.647 31.0761 145.442 30.8973 146.149 30.5398C146.308 30.4683 146.768 30.236 147.157 30.0572C148.165 29.5746 149.12 28.4843 149.474 27.4476C149.863 26.2679 149.757 24.6234 149.209 23.4795C148.554 22.1389 146.821 21.1737 144.239 20.709C140.914 20.1191 140.861 20.1013 140.331 19.5829C139.694 18.9215 139.694 18.6892 140.331 17.9742C140.843 17.4022 140.879 17.3844 142.294 17.3844C143.708 17.3844 143.744 17.4022 144.257 17.9742C144.54 18.2959 144.77 18.6713 144.77 18.8143C144.77 19.0288 145.141 19.0824 146.98 19.0824C149.421 19.0824 149.35 19.136 148.926 17.867C148.147 15.6148 146.149 14.4708 142.824 14.3457C141.798 14.31 140.808 14.31 140.613 14.3636V14.3636ZM117.092 14.739C116.314 15.0071 115.235 15.9008 114.899 16.5443C114.563 17.1877 114.262 16.9196 114.174 15.8472L114.085 14.882H109.664L109.611 22.3892C109.593 26.5181 109.611 30.0751 109.664 30.3075C109.752 30.7007 109.806 30.7007 111.928 30.665C113.148 30.6471 114.138 30.5398 114.209 30.4326C114.28 30.3432 114.351 28.4485 114.351 26.2321C114.351 22.7288 114.386 22.1032 114.687 21.3167C115.306 19.6901 116.632 18.7249 118.295 18.7249C118.754 18.7249 118.949 18.6356 119.002 18.4032C119.126 17.8848 119.143 15.4718 119.037 14.9356C118.931 14.5066 118.843 14.4351 118.365 14.453C118.047 14.4708 117.481 14.596 117.092 14.739V14.739ZM62.6209 15.0071C62.5678 15.1322 62.5501 18.6534 62.5678 22.836L62.6209 30.4326L64.7254 30.522C65.9988 30.5756 66.9184 30.5398 67.0599 30.4326C67.2544 30.2896 67.3075 28.7703 67.3075 22.693C67.3252 18.5462 67.2721 15.0607 67.2191 14.9713C67.0422 14.7032 62.7093 14.739 62.6209 15.0071V15.0071Z" fill="#F20629"/>
</svg>
