<svg width="148" height="30" viewBox="0 0 148 30" fill="none" xmlns="http://www.w3.org/2000/svg">
<path d="M9.35164 29.4167H3.78922V15.4021H0V10.8393H3.78908V7.59246C3.78908 3.74498 5.46499 0.985596 11.0124 0.985596C12.1856 0.985596 14.0276 1.22461 14.0276 1.22461V5.46148H12.0929C10.1216 5.46148 9.35194 6.06752 9.35194 7.74299V10.8393H13.9538L13.544 15.4021H9.35179L9.35164 29.4167ZM22.1148 10.4746C22.0337 10.4746 21.9503 10.4776 21.8678 10.4797C16.71 10.4797 14.3502 14.4009 14.3502 19.9671C14.3502 26.979 17.4112 29.7854 21.9081 29.7854C24.4809 29.7854 26.1713 28.6909 27.1987 26.6484V29.4187H32.4894V10.8412H27.1987V13.6982C26.3598 11.8601 24.6222 10.4964 22.1148 10.4746ZM23.46 14.8644C25.6263 14.8644 26.9265 16.3916 26.9265 18.9893L26.9315 21.6424C26.9315 23.3932 25.8576 25.4416 23.46 25.4416C19.774 25.4416 19.8724 21.4189 19.8724 20.0791C19.8724 15.5724 21.8363 14.8644 23.46 14.8644ZM34.626 20.1309C34.626 17.8734 34.5191 10.4867 44.0411 10.4867C47.8634 10.4867 49.4595 11.715 49.4595 11.715L48.1767 15.7363C48.1767 15.7363 46.5827 14.8492 44.5057 14.8492C41.8455 14.8492 40.148 16.4079 40.148 19.1502L40.1509 21.1167C40.1509 23.7518 41.7888 25.5108 44.5112 25.5108C46.4033 25.5108 48.1473 24.6153 48.1473 24.6153L49.4269 28.5526C49.4269 28.5526 47.9675 29.7887 44.0679 29.7887C35.0014 29.7887 34.6262 23.1614 34.6262 20.1309H34.626ZM80.4805 10.4797C85.6385 10.4797 88.0355 14.4009 88.0355 19.9671C88.0355 26.979 84.9743 29.7854 80.4774 29.7854C77.9046 29.7854 76.0027 28.6911 74.9752 26.6484V29.4187L69.7511 29.4166V1.55045L75.2978 1.06154V13.4465C76.0983 11.2797 78.7292 10.4797 80.4807 10.4797H80.4805ZM78.9255 14.8644C76.7592 14.8644 75.2978 16.3916 75.2978 18.9893L75.2926 21.6424C75.2894 23.3932 76.3047 25.4416 78.9255 25.4416C82.6115 25.4416 82.5131 21.4189 82.5131 20.0791C82.5131 15.5724 80.5493 14.8644 78.9255 14.8644ZM59.0833 10.4951C53.2332 10.4951 50.1447 13.7188 50.1447 19.4476V20.512C50.1447 27.9475 54.4819 29.8618 59.6527 29.8618C64.6787 29.8618 66.9536 28.441 66.9536 28.441L65.9157 24.6574C65.9157 24.6574 63.2397 25.8081 60.3177 25.8081C57.2886 25.8081 55.9859 25.0278 55.6519 22.0857H67.3971V19.0503C67.3971 12.836 63.9308 10.4949 59.0832 10.4949L59.0833 10.4951ZM59.2243 14.2838C61.2493 14.2838 62.5615 15.5388 62.4895 18.4495H55.6621C55.7805 15.386 57.1956 14.2839 59.2243 14.2839V14.2838ZM99.0952 10.4696C93.0876 10.4696 89.9249 13.8912 89.9249 20.023C89.9249 28.4362 95.3767 29.7905 99.1053 29.7905C104.564 29.7905 108.195 26.8204 108.195 20.0994C108.195 13.1041 104.112 10.4696 99.0952 10.4696V10.4696ZM99.0197 14.8796C101.661 14.8796 102.708 16.8778 102.708 19.1523V21.1078C102.708 23.8632 101.243 25.4569 99.0096 25.4569C96.9205 25.4569 95.4523 23.9662 95.4523 21.1078V19.1523C95.4523 16.104 97.1994 14.8796 99.0197 14.8796V14.8796ZM119.245 10.4696C113.237 10.4696 110.075 13.8912 110.075 20.023C110.075 28.4362 115.526 29.7905 119.255 29.7905C124.713 29.7905 128.345 26.8204 128.345 20.0994C128.345 13.1041 124.261 10.4696 119.245 10.4696V10.4696ZM119.169 14.8796C121.811 14.8796 122.858 16.8778 122.858 19.1523V21.1078C122.858 23.8632 121.393 25.4569 119.159 25.4569C117.07 25.4569 115.602 23.9662 115.602 21.1078V19.1523C115.602 16.104 117.349 14.8796 119.169 14.8796V14.8796ZM130.441 29.4167V1.55045L136.003 1.06154V19.7393L141.522 10.8393H147.397L141.64 20.0571L147.619 29.4167H141.727L136.003 20.3286V29.4167H130.441Z" fill="#2D88FF"/>
</svg>
