<svg width="160" height="41" viewBox="0 0 160 41" fill="none" xmlns="http://www.w3.org/2000/svg">
<path d="M51.8677 16.0483C51.8677 13.1707 49.0991 10.1145 44.308 10.1145C38.9278 10.1145 33.0175 14.1035 32.1143 22.0615C31.1914 30.0988 36.1396 33.671 41.127 33.671C46.1145 33.671 48.726 31.7063 51.3965 29.0867C49.0991 26.1695 46.1341 27.5189 45.5647 27.8166C44.9363 28.1341 44.1313 28.5707 42.4819 28.5707C40.5576 28.5707 38.594 27.6975 38.594 24.0658C50.9252 22.8354 51.8677 18.9259 51.8677 16.0483ZM45.761 16.5246C45.6825 17.4176 45.3291 18.9457 39.0849 19.7991C40.4005 15.0759 42.9139 14.7187 44.0724 14.7187C45.1523 14.7187 45.8396 15.572 45.761 16.5246ZM24.8687 17.2986C24.8687 17.2986 22.2179 25.713 22.0019 26.4076C21.9233 25.6932 19.9794 10.5908 19.9794 10.5908C15.4632 10.5908 13.048 13.8455 11.7717 17.2787C11.7717 17.2787 8.55146 25.713 8.27656 26.4274C8.25693 25.7725 7.78567 17.378 7.78567 17.378C7.51077 13.1707 3.70145 10.6107 0.618652 10.6107L4.34943 33.4924C9.08162 33.4726 11.6343 30.2378 12.9695 26.8045C12.9695 26.8045 15.8167 19.3625 15.9345 19.0251C15.9541 19.3426 17.9766 33.4924 17.9766 33.4924C22.7284 33.4924 25.281 30.4561 26.6555 27.1419L33.312 10.6107C28.6191 10.6107 26.145 13.8455 24.8687 17.2986ZM69.3042 10.0749C66.3785 10.0749 64.14 11.6823 62.255 14.0439V14.0241L63.9437 0.27124C60.0558 0.27124 56.8945 3.68465 56.2858 8.76506L53.3404 33.3138C55.5789 33.3138 57.9548 32.6589 59.2311 30.9919C60.37 32.4803 62.0783 33.671 64.6113 33.671C71.1696 33.671 75.6662 25.971 75.6662 18.7473C75.6269 12.1586 72.4655 10.0749 69.3042 10.0749ZM68.6955 21.8829C68.0083 25.9115 65.7894 28.6501 63.6491 28.6501C61.4892 28.6501 60.5663 27.6777 60.5663 27.6777C60.9787 24.1452 61.2339 21.9821 62.0194 20.1166C62.8048 18.2512 64.6702 15.2743 66.6141 15.2743C68.5188 15.2743 69.3827 17.8344 68.6955 21.8829ZM92.0423 10.6107H87.4672L87.4868 10.3725C87.801 7.35604 88.5079 5.76841 90.8445 5.51042C92.435 5.35166 93.1419 4.51815 93.3186 3.60526C93.4561 2.89083 93.8881 0.410159 93.8881 0.410159C84.6986 0.350623 81.8121 4.35939 81.066 10.4718L81.0463 10.6107H80.9482C79.4559 10.6107 77.8064 12.3174 77.5316 14.4805L77.4334 15.2743H80.4965L77.9243 36.747L77.1388 40.597C77.237 40.597 77.3548 40.6169 77.453 40.6169C81.7532 40.4581 84.5022 37.0249 85.1109 32.0437L87.1138 15.2743H88.5472C89.9609 15.2743 91.6103 13.8455 91.9049 11.464L92.0423 10.6107ZM115.841 10.2138C110.559 10.2138 105.571 14.1432 104.04 20.3151C102.508 26.487 104.825 33.7901 112.601 33.7901C120.357 33.7901 124.834 26.1893 124.834 19.8586C124.834 13.5676 120.612 10.2138 115.841 10.2138ZM117.981 21.6844C117.706 24.4826 116.489 28.7295 113.151 28.7295C109.793 28.7295 110.264 23.7682 110.598 21.4066C110.951 18.8862 112.346 15.2942 115.35 15.2942C118.04 15.2942 118.295 18.529 117.981 21.6844ZM150.93 17.2986C150.93 17.2986 148.279 25.713 148.063 26.4076C147.984 25.6932 146.04 10.5908 146.04 10.5908C141.524 10.5908 139.109 13.8455 137.833 17.2787C137.833 17.2787 134.612 25.713 134.338 26.4274C134.318 25.7725 133.847 17.378 133.847 17.378C133.572 13.1707 129.762 10.6107 126.68 10.6107L130.391 33.4924C135.123 33.4726 137.676 30.2378 139.011 26.8045C139.011 26.8045 141.858 19.3625 141.956 19.0251C141.976 19.3426 143.998 33.4924 143.998 33.4924C148.75 33.4924 151.303 30.4561 152.677 27.1419L159.334 10.6107C154.66 10.6107 152.186 13.8455 150.93 17.2986ZM96.3622 0.410159L92.5136 31.7857L91.7281 35.6555C91.8263 35.6555 91.9441 35.6754 92.0423 35.6754C96.1854 35.6159 99.1308 31.9445 99.6806 27.3205L101.899 9.32073C102.567 3.82356 99.3271 0.410159 96.3622 0.410159Z" fill="#3545EE"/>
</svg>
