<svg width="135" height="45" viewBox="0 0 135 45" fill="none" xmlns="http://www.w3.org/2000/svg">
<path d="M16.8375 0H18.0291C22.1662 0.0908963 26.2357 1.77248 29.1586 4.74933C28.0794 5.86281 26.9777 6.93084 25.9209 8.04432C24.2796 6.54453 22.3011 5.38561 20.1426 4.97657C16.9499 4.29485 13.5099 4.9084 10.8343 6.74905C7.91143 8.6806 5.93286 11.9529 5.50567 15.4524C5.03351 18.9064 6.00031 22.5423 8.2262 25.2237C10.3622 27.837 13.6223 29.4731 16.9949 29.5867C20.1426 29.7685 23.4252 28.7914 25.7186 26.5644C27.5173 24.9965 28.3492 22.6105 28.619 20.2926C24.8867 20.2926 21.1544 20.3153 17.4221 20.2926V15.6114H33.1382C33.9477 20.6335 32.7785 26.2918 29.0012 29.8822C26.483 32.4273 22.9981 33.927 19.4456 34.2225C16.0056 34.5633 12.4532 33.9043 9.39536 32.2227C5.7305 30.2457 2.80761 26.9053 1.36865 22.974C0.0196215 19.3609 -0.00286226 15.2706 1.25623 11.6347C2.4029 8.31701 4.60631 5.38561 7.43927 3.34044C10.1598 1.318 13.4649 0.204517 16.8375 0Z" fill="#3580FF"/>
<path d="M106.998 1.18164H111.81V33.6316C110.213 33.6316 108.595 33.6543 106.998 33.6088C107.021 22.8149 106.998 11.9983 106.998 1.18164V1.18164Z" fill="#33A853"/>
<path d="M43.8401 12.4301C46.808 11.862 50.0231 12.4983 52.4739 14.2935C54.6998 15.8841 56.2512 18.3838 56.7233 21.1106C57.3304 24.2692 56.5659 27.7233 54.5424 30.2229C52.3615 33.0179 48.7865 34.5177 45.3015 34.2905C42.1088 34.1087 39.0061 32.4953 37.1174 29.8593C34.9815 26.9507 34.4643 22.9513 35.6335 19.5427C36.8027 15.8841 40.1078 13.0891 43.8401 12.4301V12.4301ZM44.5146 16.7476C43.3005 17.0658 42.1763 17.7702 41.3669 18.7701C39.1859 21.406 39.3209 25.7009 41.7266 28.155C43.0981 29.5639 45.1666 30.2229 47.0778 29.8366C48.854 29.5185 50.4054 28.3141 51.2598 26.7234C52.7437 24.0193 52.3165 20.2926 50.0456 18.1792C48.5842 16.8158 46.4482 16.2477 44.5146 16.7476Z" fill="#F84233"/>
<path d="M67.6729 12.43C71.0679 11.771 74.7778 12.7254 77.3184 15.1342C81.4554 18.8836 81.9051 25.9054 78.3752 30.223C76.2392 32.9499 72.7767 34.4497 69.3592 34.2906C66.099 34.1997 62.8838 32.5636 60.9502 29.8594C58.7693 26.8825 58.2971 22.7922 59.5337 19.3154C60.7703 15.7704 64.008 13.0663 67.6729 12.43V12.43ZM68.3474 16.7476C67.1333 17.0657 66.0091 17.7702 65.1997 18.7473C63.0412 21.3379 63.1311 25.5645 65.447 28.0415C66.8185 29.5185 68.9545 30.2457 70.933 29.8367C72.6868 29.4958 74.2606 28.3142 75.115 26.7235C76.5765 23.9966 76.1493 20.2698 73.8559 18.1565C72.3945 16.793 70.2585 16.2476 68.3474 16.7476Z" fill="#FFC00A"/>
<path d="M87.8874 13.7481C90.473 12.112 93.913 11.6575 96.701 13.0664C97.5779 13.4527 98.2974 14.1117 98.9944 14.7707C99.0169 14.1571 98.9944 13.5208 99.0169 12.8846C100.523 12.9073 102.03 12.8846 103.559 12.9073V32.9499C103.536 35.9722 102.772 39.1763 100.613 41.3805C98.2524 43.812 94.6325 44.5619 91.3724 44.0619C87.8874 43.5393 84.852 40.9715 83.503 37.7219C84.852 37.0629 86.2685 36.5403 87.6625 35.9267C88.4495 37.7901 90.0458 39.3808 92.0469 39.7444C94.0479 40.108 96.3638 39.608 97.6678 37.9265C99.0618 36.1994 99.0618 33.8361 98.9944 31.7228C97.9601 32.7454 96.7685 33.6543 95.3295 33.9952C92.2043 34.8814 88.7642 33.7907 86.3585 31.6546C83.9302 29.5186 82.4912 26.2236 82.6262 22.9513C82.6936 19.2473 84.7621 15.6796 87.8874 13.7481V13.7481ZM92.5415 16.6568C91.17 16.884 89.8884 17.6566 89.0116 18.7246C86.8981 21.2697 86.8981 25.3373 89.034 27.837C90.2482 29.314 92.2043 30.1321 94.0929 29.9276C95.8691 29.7458 97.5104 28.6096 98.3873 27.0416C99.8712 24.3829 99.6239 20.7698 97.6229 18.452C96.3863 17.0203 94.4077 16.3159 92.5415 16.6568V16.6568Z" fill="#3580FF"/>
<path d="M117.587 14.907C120.285 12.3619 124.445 11.4984 127.907 12.8392C131.19 14.089 133.281 17.2476 134.338 20.4972C129.459 22.5423 124.602 24.5648 119.723 26.6099C120.398 27.9052 121.432 29.0868 122.826 29.5641C124.782 30.2685 127.12 30.0185 128.762 28.7005C129.414 28.2006 129.931 27.5416 130.425 26.9053C131.662 27.7461 132.899 28.5642 134.135 29.405C132.382 32.0637 129.436 33.9271 126.266 34.2225C122.758 34.6542 119.026 33.2908 116.755 30.5185C113.023 26.1554 113.383 18.8383 117.587 14.907V14.907ZM119.993 19.111C119.229 20.2245 118.914 21.5879 118.936 22.9286C122.196 21.5652 125.457 20.2017 128.717 18.8156C128.177 17.543 126.873 16.7704 125.547 16.5659C123.411 16.1796 121.185 17.3385 119.993 19.111V19.111Z" fill="#F84233"/>
</svg>
